<mxfile host="Electron" modified="2024-01-07T14:03:57.704Z" agent="Mozilla/5.0 (Macintosh; Intel Mac OS X 10_15_7) AppleWebKit/537.36 (KHTML, like Gecko) draw.io/22.0.3 Chrome/114.0.5735.289 Electron/25.8.4 Safari/537.36" etag="6rhAIkK8z8OQxYT5WTfb" version="22.0.3" type="device" pages="3">
  <diagram id="nPECH1lwjArTw65YKCTJ" name="数据流图结构">
    <mxGraphModel dx="954" dy="625" grid="1" gridSize="10" guides="1" tooltips="1" connect="1" arrows="1" fold="1" page="1" pageScale="1" pageWidth="827" pageHeight="1169" math="0" shadow="0">
      <root>
        <mxCell id="0" />
        <mxCell id="1" parent="0" />
        <mxCell id="TKfea9ZC5d-hfO6uXwjG-1" value="Flume + Kafka" style="rounded=0;whiteSpace=wrap;html=1;fontFamily=Comic Sans MS;fontSize=13;" vertex="1" parent="1">
          <mxGeometry x="80" y="160" width="240" height="60" as="geometry" />
        </mxCell>
        <mxCell id="TKfea9ZC5d-hfO6uXwjG-2" value="" style="rounded=0;whiteSpace=wrap;html=1;fontFamily=Comic Sans MS;fontSize=13;" vertex="1" parent="1">
          <mxGeometry x="580" y="160" width="180" height="140" as="geometry" />
        </mxCell>
        <mxCell id="TKfea9ZC5d-hfO6uXwjG-3" value="RODS" style="rounded=0;whiteSpace=wrap;html=1;fontFamily=Comic Sans MS;fontSize=13;" vertex="1" parent="1">
          <mxGeometry x="600" y="180" width="140" height="40" as="geometry" />
        </mxCell>
        <mxCell id="TKfea9ZC5d-hfO6uXwjG-4" value="RODS" style="rounded=0;whiteSpace=wrap;html=1;fontFamily=Comic Sans MS;fontSize=13;" vertex="1" parent="1">
          <mxGeometry x="600" y="240" width="140" height="40" as="geometry" />
        </mxCell>
        <mxCell id="TKfea9ZC5d-hfO6uXwjG-5" value="Flink 预聚合" style="rounded=0;whiteSpace=wrap;html=1;fontFamily=Comic Sans MS;fontSize=13;" vertex="1" parent="1">
          <mxGeometry x="331" y="320" width="166" height="40" as="geometry" />
        </mxCell>
        <mxCell id="NVGLjCmpXYqT7XZJhMef-1" value="" style="endArrow=classic;html=1;rounded=0;exitX=0.696;exitY=1.05;exitDx=0;exitDy=0;exitPerimeter=0;fontFamily=Comic Sans MS;fontSize=13;" edge="1" parent="1" source="TKfea9ZC5d-hfO6uXwjG-1">
          <mxGeometry width="50" height="50" relative="1" as="geometry">
            <mxPoint x="220" y="310" as="sourcePoint" />
            <mxPoint x="380" y="310" as="targetPoint" />
          </mxGeometry>
        </mxCell>
        <mxCell id="NVGLjCmpXYqT7XZJhMef-2" value="" style="endArrow=classic;html=1;rounded=0;entryX=0;entryY=0.5;entryDx=0;entryDy=0;fontFamily=Comic Sans MS;fontSize=13;" edge="1" parent="1" target="TKfea9ZC5d-hfO6uXwjG-4">
          <mxGeometry width="50" height="50" relative="1" as="geometry">
            <mxPoint x="430" y="310" as="sourcePoint" />
            <mxPoint x="390" y="320" as="targetPoint" />
          </mxGeometry>
        </mxCell>
        <mxCell id="NVGLjCmpXYqT7XZJhMef-3" value="" style="endArrow=classic;html=1;rounded=0;exitX=1;exitY=0.5;exitDx=0;exitDy=0;entryX=0;entryY=0.5;entryDx=0;entryDy=0;fontFamily=Comic Sans MS;fontSize=13;" edge="1" parent="1" source="TKfea9ZC5d-hfO6uXwjG-1" target="TKfea9ZC5d-hfO6uXwjG-3">
          <mxGeometry width="50" height="50" relative="1" as="geometry">
            <mxPoint x="400" y="350" as="sourcePoint" />
            <mxPoint x="450" y="300" as="targetPoint" />
          </mxGeometry>
        </mxCell>
      </root>
    </mxGraphModel>
  </diagram>
  <diagram name="数仓结构" id="0cB0zQwSX03sYAd3HOLY">
    <mxGraphModel dx="954" dy="1025" grid="1" gridSize="10" guides="1" tooltips="1" connect="1" arrows="1" fold="1" page="0" pageScale="1" pageWidth="827" pageHeight="1169" math="0" shadow="0">
      <root>
        <mxCell id="0" />
        <mxCell id="1" parent="0" />
        <mxCell id="QE3eq3vebrFRoXPsBdUz-1" value="" style="rounded=0;whiteSpace=wrap;html=1;fontFamily=Comic Sans MS;fontSize=13;" vertex="1" parent="1">
          <mxGeometry x="60" y="360" width="260" height="210" as="geometry" />
        </mxCell>
        <mxCell id="QE3eq3vebrFRoXPsBdUz-2" value="Clickhouse" style="text;html=1;strokeColor=none;fillColor=none;align=center;verticalAlign=middle;whiteSpace=wrap;rounded=0;fontFamily=Comic Sans MS;fontSize=13;" vertex="1" parent="1">
          <mxGeometry x="135" y="330" width="110" height="30" as="geometry" />
        </mxCell>
        <mxCell id="QE3eq3vebrFRoXPsBdUz-3" value="rods" style="rounded=0;whiteSpace=wrap;html=1;fontFamily=Comic Sans MS;fontSize=13;fillColor=#dae8fc;strokeColor=#6c8ebf;" vertex="1" parent="1">
          <mxGeometry x="220" y="400" width="90" height="150" as="geometry" />
        </mxCell>
        <mxCell id="K6IhHLM4vtpeYJq_Cqi_-5" style="edgeStyle=orthogonalEdgeStyle;rounded=0;orthogonalLoop=1;jettySize=auto;html=1;entryX=0;entryY=0.5;entryDx=0;entryDy=0;fillColor=#f8cecc;strokeColor=#b85450;" edge="1" parent="1" source="QE3eq3vebrFRoXPsBdUz-4" target="QE3eq3vebrFRoXPsBdUz-6">
          <mxGeometry relative="1" as="geometry" />
        </mxCell>
        <mxCell id="QE3eq3vebrFRoXPsBdUz-4" value="&lt;div style=&quot;font-size: 13px; line-height: 21px;&quot;&gt;rods.dwd_analytics_event_from_kafka_sync &lt;br&gt;(kafka 用户行为数据同步中间表)&lt;/div&gt;" style="rounded=0;whiteSpace=wrap;html=1;fillColor=#dae8fc;labelBackgroundColor=none;fontFamily=Comic Sans MS;fontSize=13;strokeColor=#6c8ebf;" vertex="1" parent="1">
          <mxGeometry x="410" y="360" width="380" height="50" as="geometry" />
        </mxCell>
        <mxCell id="QE3eq3vebrFRoXPsBdUz-5" value="&lt;div style=&quot;font-size: 13px; line-height: 21px;&quot;&gt;&lt;div style=&quot;font-family: Menlo, Monaco, &amp;quot;Courier New&amp;quot;, monospace; font-size: 14px; line-height: 21px;&quot;&gt;rods.dwd_analytics_event_from_kafka_res (Kafka用户行为数据存放表)&lt;/div&gt;&lt;/div&gt;" style="rounded=0;whiteSpace=wrap;html=1;fillColor=#dae8fc;labelBackgroundColor=none;fontFamily=Comic Sans MS;fontSize=13;strokeColor=#6c8ebf;" vertex="1" parent="1">
          <mxGeometry x="410" y="500" width="380" height="50" as="geometry" />
        </mxCell>
        <mxCell id="K6IhHLM4vtpeYJq_Cqi_-6" style="edgeStyle=orthogonalEdgeStyle;rounded=0;orthogonalLoop=1;jettySize=auto;html=1;fillColor=#f8cecc;strokeColor=#b85450;" edge="1" parent="1" source="QE3eq3vebrFRoXPsBdUz-6" target="QE3eq3vebrFRoXPsBdUz-5">
          <mxGeometry relative="1" as="geometry" />
        </mxCell>
        <mxCell id="QE3eq3vebrFRoXPsBdUz-6" value="&lt;div style=&quot;font-size: 13px; line-height: 21px;&quot;&gt;&lt;div style=&quot;font-family: Menlo, Monaco, &amp;quot;Courier New&amp;quot;, monospace; font-size: 14px; line-height: 21px;&quot;&gt;&lt;div style=&quot;line-height: 21px;&quot;&gt;rods.dwd_analytics_event_from_kafka_mv (Kafka用户行为数据同步&lt;b&gt;&lt;font color=&quot;#ff0000&quot;&gt;物化视图表&lt;/font&gt;&lt;/b&gt;)&lt;/div&gt;&lt;/div&gt;&lt;/div&gt;" style="rounded=0;whiteSpace=wrap;html=1;fillColor=#dae8fc;labelBackgroundColor=none;fontFamily=Comic Sans MS;fontSize=13;strokeColor=#6c8ebf;" vertex="1" parent="1">
          <mxGeometry x="840" y="460" width="380" height="50" as="geometry" />
        </mxCell>
        <mxCell id="QE3eq3vebrFRoXPsBdUz-7" value="&lt;div style=&quot;font-size: 13px; line-height: 21px;&quot;&gt;&lt;div style=&quot;font-family: Menlo, Monaco, &amp;quot;Courier New&amp;quot;, monospace; font-size: 14px; line-height: 21px;&quot;&gt;&lt;div style=&quot;line-height: 21px;&quot;&gt;&lt;div style=&quot;line-height: 21px;&quot;&gt;rows.dwb_analytics_event_sequence_groupby_uid_eventTime_from_script (用户行为序列轻度聚合表)&lt;/div&gt;&lt;/div&gt;&lt;/div&gt;&lt;/div&gt;" style="rounded=0;whiteSpace=wrap;html=1;fillColor=#dae8fc;labelBackgroundColor=none;fontFamily=Comic Sans MS;fontSize=13;strokeColor=#6c8ebf;" vertex="1" parent="1">
          <mxGeometry x="410" y="680" width="580" height="50" as="geometry" />
        </mxCell>
        <mxCell id="QE3eq3vebrFRoXPsBdUz-8" value="&lt;div style=&quot;font-size: 13px; line-height: 21px;&quot;&gt;&lt;div style=&quot;font-family: Menlo, Monaco, &amp;quot;Courier New&amp;quot;, monospace; font-size: 14px; line-height: 21px;&quot;&gt;&lt;div style=&quot;line-height: 21px;&quot;&gt;&lt;div style=&quot;line-height: 21px;&quot;&gt;&lt;div style=&quot;line-height: 21px;&quot;&gt;rows.dwb_analytics_eventindex_groupby_uid_event_from_flink&amp;nbsp;&lt;/div&gt;&lt;div style=&quot;line-height: 21px;&quot;&gt;(事件行为维度指标轻度聚合表)&lt;/div&gt;&lt;/div&gt;&lt;/div&gt;&lt;/div&gt;&lt;/div&gt;" style="rounded=0;whiteSpace=wrap;html=1;fillColor=#dae8fc;labelBackgroundColor=none;fontFamily=Comic Sans MS;fontSize=13;strokeColor=#6c8ebf;" vertex="1" parent="1">
          <mxGeometry x="410" y="780" width="580" height="50" as="geometry" />
        </mxCell>
        <mxCell id="K6IhHLM4vtpeYJq_Cqi_-4" value="&lt;div style=&quot;font-family: Menlo, Monaco, &amp;quot;Courier New&amp;quot;, monospace; font-size: 14px; line-height: 21px;&quot;&gt;&lt;div&gt;CREATE MATERIALIZED VIEW &lt;span style=&quot;&quot;&gt;IF&lt;/span&gt; &lt;span style=&quot;&quot;&gt;NOT&lt;/span&gt; &lt;span style=&quot;&quot;&gt;EXISTS&lt;/span&gt; rods.dwd_analytics_event_from_kafka_mv &lt;span style=&quot;&quot;&gt;TO&lt;/span&gt; rods.dwd_analytics_event_from_kafka_res &lt;span style=&quot;&quot;&gt;AS&lt;/span&gt;&lt;/div&gt;&lt;div&gt;&lt;span style=&quot;&quot;&gt;SELECT&lt;/span&gt; &lt;/div&gt;&lt;div&gt;    user_id_int,event_name,event_target_name,event_time&lt;/div&gt;&lt;div&gt;&lt;span style=&quot;&quot;&gt;FROM&lt;/span&gt; rods.dwd_analytics_event_from_kafka_sync&lt;/div&gt;&lt;div&gt;;&lt;/div&gt;&lt;/div&gt;" style="rounded=0;whiteSpace=wrap;html=1;fontColor=default;labelBackgroundColor=none;align=left;" vertex="1" parent="1">
          <mxGeometry x="940" y="510" width="720" height="150" as="geometry" />
        </mxCell>
        <mxCell id="jfcNmaNLHOEH8jJ5q-6k-3" style="edgeStyle=orthogonalEdgeStyle;rounded=0;orthogonalLoop=1;jettySize=auto;html=1;entryX=0.5;entryY=0;entryDx=0;entryDy=0;fillColor=#f8cecc;strokeColor=#b85450;" edge="1" parent="1" source="K6IhHLM4vtpeYJq_Cqi_-7" target="QE3eq3vebrFRoXPsBdUz-4">
          <mxGeometry relative="1" as="geometry" />
        </mxCell>
        <mxCell id="K6IhHLM4vtpeYJq_Cqi_-7" value="Kafka" style="rounded=0;whiteSpace=wrap;html=1;" vertex="1" parent="1">
          <mxGeometry x="125" y="100" width="120" height="60" as="geometry" />
        </mxCell>
        <mxCell id="jfcNmaNLHOEH8jJ5q-6k-1" style="edgeStyle=orthogonalEdgeStyle;rounded=0;orthogonalLoop=1;jettySize=auto;html=1;entryX=0.5;entryY=0;entryDx=0;entryDy=0;" edge="1" parent="1" source="K6IhHLM4vtpeYJq_Cqi_-8" target="K6IhHLM4vtpeYJq_Cqi_-7">
          <mxGeometry relative="1" as="geometry" />
        </mxCell>
        <mxCell id="K6IhHLM4vtpeYJq_Cqi_-8" value="Flume" style="rounded=0;whiteSpace=wrap;html=1;" vertex="1" parent="1">
          <mxGeometry x="125" y="-60" width="120" height="60" as="geometry" />
        </mxCell>
        <mxCell id="jfcNmaNLHOEH8jJ5q-6k-4" value="&lt;div style=&quot;font-size: 13px; line-height: 21px;&quot;&gt;&lt;div style=&quot;font-size: 13px;&quot;&gt;CREATE &lt;span style=&quot;font-size: 13px;&quot;&gt;TABLE&lt;/span&gt; IF &lt;span style=&quot;font-size: 13px;&quot;&gt;NOT&lt;/span&gt; &lt;span style=&quot;font-size: 13px;&quot;&gt;EXISTS&lt;/span&gt; rods.dwd_analytics_event_from_kafka_sync&lt;/div&gt;&lt;div style=&quot;font-size: 13px;&quot;&gt;(&lt;/div&gt;&lt;div style=&quot;font-size: 13px;&quot;&gt;    &lt;span style=&quot;font-size: 13px;&quot;&gt;`user_id_int`&lt;/span&gt; UInt64,&lt;/div&gt;&lt;div style=&quot;font-size: 13px;&quot;&gt;    &lt;span style=&quot;font-size: 13px;&quot;&gt;`event_name`&lt;/span&gt; String,&lt;/div&gt;&lt;div style=&quot;font-size: 13px;&quot;&gt;    &lt;span style=&quot;font-size: 13px;&quot;&gt;`event_target_name`&lt;/span&gt; String,&lt;/div&gt;&lt;div style=&quot;font-size: 13px;&quot;&gt;    &lt;span style=&quot;font-size: 13px;&quot;&gt;`event_time`&lt;/span&gt; &lt;span style=&quot;font-size: 13px;&quot;&gt;DateTime&lt;/span&gt;&lt;/div&gt;&lt;div style=&quot;font-size: 13px;&quot;&gt;)&lt;/div&gt;&lt;div style=&quot;font-size: 13px;&quot;&gt;ENGINE = Kafka()&lt;/div&gt;&lt;div style=&quot;font-size: 13px;&quot;&gt;SETTINGS kafka_broker_list = &lt;span style=&quot;font-size: 13px;&quot;&gt;&#39;kafka1:9092&#39;&lt;/span&gt;, &lt;/div&gt;&lt;div style=&quot;font-size: 13px;&quot;&gt;         kafka_topic_list = &lt;span style=&quot;font-size: 13px;&quot;&gt;&#39;imoocevent&#39;&lt;/span&gt;,&lt;/div&gt;&lt;div style=&quot;font-size: 13px;&quot;&gt;         kafka_group_name = &lt;span style=&quot;font-size: 13px;&quot;&gt;&#39;clickhouse-riskengine&#39;&lt;/span&gt;, &lt;/div&gt;&lt;div style=&quot;font-size: 13px;&quot;&gt;         kafka_format = &lt;span style=&quot;font-size: 13px;&quot;&gt;&#39;JSONEachRow&#39;&lt;/span&gt;&lt;/div&gt;&lt;div style=&quot;font-size: 13px;&quot;&gt;;&lt;/div&gt;&lt;/div&gt;" style="rounded=0;whiteSpace=wrap;html=1;fontStyle=0;align=left;labelBackgroundColor=none;fontColor=default;fontFamily=Comic Sans MS;fontSize=13;" vertex="1" parent="1">
          <mxGeometry x="490" y="30" width="500" height="270" as="geometry" />
        </mxCell>
        <mxCell id="jfcNmaNLHOEH8jJ5q-6k-5" value="Kafka 表引擎" style="text;html=1;strokeColor=#6c8ebf;fillColor=#dae8fc;align=center;verticalAlign=middle;whiteSpace=wrap;rounded=0;" vertex="1" parent="1">
          <mxGeometry x="330" y="115" width="80" height="30" as="geometry" />
        </mxCell>
        <mxCell id="jfcNmaNLHOEH8jJ5q-6k-6" value="注意：kafka_sync 并不会真正存储数据，而是创建视图后，由 kafka_res表存储&amp;nbsp;&amp;nbsp;" style="text;html=1;strokeColor=#b85450;fillColor=#f8cecc;align=center;verticalAlign=middle;whiteSpace=wrap;rounded=0;" vertex="1" parent="1">
          <mxGeometry x="630" y="320" width="470" height="30" as="geometry" />
        </mxCell>
        <mxCell id="jfcNmaNLHOEH8jJ5q-6k-7" value="rows" style="rounded=0;whiteSpace=wrap;html=1;fontFamily=Comic Sans MS;fontSize=13;fillColor=#d5e8d4;strokeColor=#82b366;" vertex="1" parent="1">
          <mxGeometry x="80" y="400" width="90" height="150" as="geometry" />
        </mxCell>
      </root>
    </mxGraphModel>
  </diagram>
  <diagram id="9ulJ4v_-bICF3swUIhvl" name="Flink 开发模板">
    <mxGraphModel dx="1354" dy="1025" grid="1" gridSize="10" guides="1" tooltips="1" connect="1" arrows="1" fold="1" page="0" pageScale="1" pageWidth="827" pageHeight="1169" math="0" shadow="0">
      <root>
        <mxCell id="0" />
        <mxCell id="1" parent="0" />
        <mxCell id="KWHgFDcyt7BwQ2af02A8-1" value="" style="rounded=0;whiteSpace=wrap;html=1;" vertex="1" parent="1">
          <mxGeometry x="-30" y="-40" width="190" height="40" as="geometry" />
        </mxCell>
        <mxCell id="KWHgFDcyt7BwQ2af02A8-2" value="MetricWindowAssigner&lt;br&gt;(窗口分发器)" style="rounded=0;whiteSpace=wrap;html=1;fillColor=#dae8fc;strokeColor=#6c8ebf;" vertex="1" parent="1">
          <mxGeometry x="-30" y="100" width="190" height="40" as="geometry" />
        </mxCell>
      </root>
    </mxGraphModel>
  </diagram>
</mxfile>
